<?xml version="1.0" encoding="iso-8859-1"?>
<!-- Generator: Adobe Illustrator 19.0.0, SVG Export Plug-In . SVG Version: 6.00 Build 0)  -->
<svg version="1.1" id="Capa_1" xmlns="http://www.w3.org/2000/svg" xmlns:xlink="http://www.w3.org/1999/xlink" x="0px" y="0px"
	 viewBox="0 0 442.135 442.135" style="enable-background:new 0 0 442.135 442.135;" xml:space="preserve">
<g>
	<g>
		<path d="M432.134,105.33H10c-5.568,0.109-10.019,4.664-10,10.233C-0.244,237.507,98.414,336.56,220.358,336.804
			c0.237,0,0.473,0.001,0.71,0c121.9,0,221.067-99.374,221.067-221.271C442.151,109.971,437.697,105.426,432.134,105.33z
			 M377.52,125.33c-1.737,34.206-14.812,66.86-37.161,92.813l-94.386-92.813H377.52z M231.067,139.188l95.391,93.8
			c-26.256,23.972-59.909,38.262-95.391,40.508V139.188z M196.161,125.33l-94.277,92.705
			c-22.429-25.872-35.549-58.508-37.268-92.705H196.161z M211.067,139.188v134.309c-35.47-2.242-69.098-16.581-95.271-40.625
			L211.067,139.188z M221.067,316.63c-107.285,0.092-195.708-84.137-200.826-191.3h24.341
			c4.717,97.469,87.554,172.66,185.024,167.943c90.869-4.397,163.546-77.074,167.943-167.943h24.339
			C416.725,232.47,328.332,316.672,221.067,316.63z"/>
	</g>
</g>
<g>
</g>
<g>
</g>
<g>
</g>
<g>
</g>
<g>
</g>
<g>
</g>
<g>
</g>
<g>
</g>
<g>
</g>
<g>
</g>
<g>
</g>
<g>
</g>
<g>
</g>
<g>
</g>
<g>
</g>
</svg>
